<svg width="158" height="43" viewBox="0 0 158 43" fill="none" xmlns="http://www.w3.org/2000/svg">
<path d="M3.34728 4.52072H0V38.876H3.34728V4.52072Z" fill="#E82844"/>
<path d="M0 4.52073L0 7.85959L9.27155 7.85959V4.52073L0 4.52073Z" fill="#E82844"/>
<path d="M0 35.5372L0 38.876H9.27155V35.5372H0Z" fill="#E82844"/>
<path d="M26.6886 38.2166L10.8541 43V0L26.6886 4.42853V38.2166Z" fill="#E82844"/>
<path d="M13.0306 22.2879C13.5767 22.2879 14.0194 21.8463 14.0194 21.3016C14.0194 20.7569 13.5767 20.3153 13.0306 20.3153C12.4845 20.3153 12.0418 20.7569 12.0418 21.3016C12.0418 21.8463 12.4845 22.2879 13.0306 22.2879Z" fill="white"/>
<path d="M29.8903 30.5079C29.827 30.3857 29.7989 30.2484 29.809 30.1112C29.8113 30.0169 29.8245 29.9231 29.8482 29.8318C29.8883 29.7114 29.9736 29.6112 30.0863 29.5524L32.4924 27.6245C32.5407 27.5554 32.6068 27.5004 32.6837 27.4655C32.7605 27.4306 32.8454 27.417 32.9294 27.4261C33.1628 27.4573 33.3824 27.5542 33.5625 27.7055C34.0648 28.1265 34.6325 28.5875 35.2655 29.0886C35.8819 29.5826 36.6513 29.8473 37.4419 29.8374C38.3383 29.8374 38.9517 29.6511 39.2822 29.2786C39.6096 28.9102 39.7856 28.4323 39.7752 27.9402C39.7742 27.7939 39.742 27.6494 39.6806 27.5164C39.6193 27.3835 39.5303 27.2651 39.4195 27.1691C39.1636 26.9339 38.8817 26.7286 38.5792 26.5572C38.2707 26.377 37.9463 26.2255 37.61 26.1045C37.2795 25.9844 37.0078 25.9006 36.7977 25.8475C34.4877 25.2421 32.8248 24.4589 31.809 23.4977C30.7931 22.5366 30.2852 21.2793 30.2852 19.7258C30.2785 18.9761 30.4595 18.2366 30.8118 17.5744C31.1827 16.8834 31.6952 16.278 32.316 15.7974C33.0166 15.2551 33.8073 14.8399 34.6521 14.5708C35.6304 14.2586 36.6529 14.1058 37.68 14.1182C38.899 14.1 40.1096 14.3212 41.243 14.7692C42.2611 15.1777 43.201 15.7581 44.0217 16.4847C44.4978 16.9597 44.7359 17.3546 44.7359 17.6694C44.7359 17.7756 44.5903 17.9712 44.299 18.2617C44.0076 18.5523 43.6855 18.8401 43.3298 19.1307C42.9741 19.4212 42.6295 19.6895 42.299 19.9018C42.1089 20.0602 41.886 20.1747 41.6463 20.2371C41.3845 20.2106 41.1433 20.0833 40.9741 19.8823C40.5648 19.5375 40.1283 19.2264 39.6688 18.9519C39.088 18.6308 38.4304 18.4743 37.7669 18.4992C37.2859 18.4973 36.8095 18.5923 36.3663 18.7786C36.1617 18.8571 35.9878 18.9992 35.8703 19.1838C35.7528 19.3685 35.6979 19.5859 35.7137 19.804C35.7137 20.279 35.9844 20.6515 36.526 20.9216C37.248 21.2634 37.9976 21.5438 38.7668 21.7598C39.7028 22.0746 40.6219 22.4373 41.5203 22.8467C42.2853 23.1851 42.9983 23.6301 43.6379 24.1683C44.1986 24.6446 44.6569 25.2291 44.9852 25.8866C45.3154 26.5976 45.4774 27.3748 45.4586 28.1582C45.4756 29.088 45.2508 30.0063 44.806 30.8237C44.3748 31.5942 43.772 32.2556 43.0441 32.7571C42.266 33.2889 41.4018 33.6831 40.4895 33.9222C39.5155 34.1873 38.5103 34.3207 37.5008 34.319C36.1566 34.3296 34.8237 34.0741 33.5793 33.5674C32.4058 33.0946 31.3531 32.3662 30.4981 31.4355C30.2432 31.1638 30.0375 30.8499 29.8903 30.5079V30.5079Z" fill="#1B1464"/>
<path d="M48.9319 8.70896C48.9355 8.10652 49.1173 7.51855 49.4546 7.01877C49.7919 6.519 50.2695 6.12967 50.8277 5.89961C51.386 5.66956 51.9998 5.609 52.5924 5.72556C53.1849 5.84211 53.7298 6.13057 54.1587 6.55477C54.4412 6.83718 54.6637 7.1735 54.8129 7.54363C54.9621 7.91377 55.0349 8.31011 55.027 8.70896C55.0358 9.1046 54.9632 9.49783 54.8139 9.86446C54.6646 10.2311 54.4416 10.5634 54.1587 10.8408C53.5752 11.3982 52.7985 11.7094 51.9907 11.7094C51.1828 11.7094 50.4061 11.3982 49.8226 10.8408C49.5341 10.5665 49.3059 10.2353 49.1525 9.86832C48.9992 9.50131 48.924 9.1065 48.9319 8.70896V8.70896ZM54.7917 15.4146V32.9695C54.7917 33.5767 54.4612 33.8794 53.8002 33.8775H50.3576C49.7507 33.8775 49.4473 33.5748 49.4473 32.9695V15.4202C49.4342 15.1686 49.5184 14.9216 49.6826 14.7301C49.7703 14.6419 49.8759 14.5733 49.9923 14.529C50.1087 14.4846 50.2333 14.4656 50.3576 14.473H53.8002C54.0484 14.4773 54.2872 14.5683 54.4752 14.7301C54.5787 14.8122 54.6613 14.9175 54.7163 15.0374C54.7713 15.1573 54.7971 15.2884 54.7917 15.4202V15.4146Z" fill="#1B1464"/>
<path d="M61.9961 14.473H64.6095C64.7233 14.4717 64.8358 14.4961 64.9387 14.5445C65.0416 14.5929 65.1321 14.664 65.2033 14.7524C65.367 14.9484 65.5001 15.1679 65.5983 15.4034C65.7075 15.6656 65.7937 15.9367 65.856 16.2137C65.9163 16.4745 65.9621 16.7385 65.9933 17.0044C66.6204 16.2833 67.3555 15.6632 68.1725 15.1659C69.1518 14.5821 70.2786 14.2912 71.4189 14.3277C72.6526 14.2994 73.8707 14.6066 74.9427 15.2162C75.8703 15.738 76.6574 16.4762 77.2367 17.3676C77.9058 16.4114 78.7954 15.6295 79.8305 15.0877C80.8788 14.5076 82.0574 14.2019 83.2562 14.1992C84.4291 14.1671 85.5954 14.3823 86.6792 14.8307C87.584 15.2277 88.3838 15.8294 89.0152 16.5881C89.6462 17.3567 90.1175 18.2428 90.4018 19.1949C90.7131 20.2403 90.8799 21.3232 90.8976 22.4136V32.9192C90.915 33.0629 90.8926 33.2087 90.8328 33.3407C90.7731 33.4727 90.6782 33.5859 90.5586 33.668C90.301 33.8071 90.0111 33.8755 89.7183 33.8663H86.6988C86.3723 33.886 86.046 33.8245 85.7492 33.6875C85.6362 33.6076 85.5471 33.4986 85.4913 33.3722C85.4356 33.2457 85.4153 33.1065 85.4327 32.9695V22.9249C85.4595 22.0419 85.2331 21.1695 84.78 20.4103C84.3431 19.7249 83.6503 19.3831 82.7016 19.3849C82.2323 19.3899 81.7682 19.4848 81.3347 19.6643C80.8769 19.8409 80.4497 20.0879 80.0686 20.3964C79.6914 20.7077 79.376 21.0868 79.1387 21.514C78.8987 21.9402 78.7759 22.4222 78.7829 22.911V32.9415C78.8007 33.0831 78.7807 33.2268 78.7252 33.3582C78.6696 33.4896 78.5804 33.6042 78.4664 33.6903C78.1999 33.8351 77.8984 33.9038 77.5953 33.8887H74.3488C74.0573 33.9109 73.7656 33.8488 73.5085 33.7099C73.3349 33.5925 73.2508 33.3494 73.2508 32.9806V22.7266C73.2508 21.6481 72.98 20.8192 72.4385 20.2399C72.1487 19.944 71.7988 19.7134 71.4123 19.5636C71.0259 19.4137 70.6117 19.348 70.1977 19.3709C69.7364 19.3721 69.2794 19.4592 68.8503 19.628C68.4066 19.7955 67.9975 20.0426 67.6431 20.3572C67.2874 20.6742 66.9923 21.0529 66.7719 21.4748C66.5503 21.8872 66.4348 22.3481 66.4358 22.816V33.0449C66.4358 33.6037 66.1062 33.8831 65.447 33.8831H62.0353C61.2884 33.8831 60.9149 33.5935 60.9149 33.0142V15.6968C60.9096 15.531 60.9398 15.3659 61.0036 15.2127C61.0673 15.0595 61.1632 14.9216 61.2846 14.8083C61.4689 14.6083 61.7242 14.488 61.9961 14.473Z" fill="#1B1464"/>
<path d="M95.5669 40.5357V15.6186C95.5669 14.9089 95.9404 14.5271 96.6874 14.473H98.6257C98.9926 14.4661 99.3588 14.5064 99.7153 14.5932C100.018 14.6714 100.236 14.962 100.368 15.4621L100.606 16.725C101.206 15.9349 101.95 15.2647 102.799 14.7497C103.714 14.2497 104.746 14.0046 105.788 14.04C107.052 14.0279 108.303 14.297 109.449 14.8279C110.551 15.3408 111.54 16.0663 112.359 16.9625C113.189 17.8874 113.842 18.9566 114.284 20.117C114.764 21.3649 115.006 22.6918 114.995 24.0286C115.006 25.3636 114.771 26.6893 114.303 27.9402C113.864 29.1133 113.205 30.1923 112.362 31.1198C111.538 32.0216 110.538 32.7461 109.424 33.2489C108.253 33.7697 106.983 34.0318 105.701 34.0172C104.776 34.0356 103.86 33.8325 103.029 33.4249C102.299 33.0666 101.636 32.5866 101.068 32.0055V40.5329C101.079 40.6946 101.054 40.8566 100.995 41.0077C100.937 41.1589 100.846 41.2955 100.729 41.4082C100.613 41.5209 100.473 41.607 100.32 41.6604C100.166 41.7138 100.003 41.7333 99.8414 41.7176H96.8358C96.5093 41.7248 96.1914 41.6125 95.9423 41.4018C95.818 41.2953 95.7196 41.1619 95.6546 41.0119C95.5896 40.8618 95.5596 40.699 95.5669 40.5357V40.5357ZM100.516 23.9113C100.509 24.5862 100.63 25.2564 100.872 25.8866C101.095 26.4681 101.423 27.0034 101.841 27.4653C102.248 27.9128 102.739 28.2755 103.287 28.5326C103.83 28.7929 104.426 28.9275 105.029 28.9265C105.62 28.9302 106.203 28.7953 106.732 28.5326C107.26 28.2702 107.732 27.9077 108.121 27.4653C108.525 27.0037 108.846 26.4763 109.071 25.9062C109.545 24.6731 109.545 23.3086 109.071 22.0756C108.846 21.5054 108.525 20.9781 108.121 20.5165C107.73 20.0763 107.254 19.7198 106.721 19.4688C106.195 19.222 105.621 19.0942 105.04 19.0944C104.445 19.092 103.857 19.2198 103.318 19.4688C102.781 19.7166 102.298 20.0658 101.895 20.497C101.474 20.9464 101.138 21.468 100.903 22.0365C100.649 22.6292 100.518 23.2668 100.516 23.9113V23.9113Z" fill="#1B1464"/>
<path d="M118.925 32.9946V5.43159C118.925 4.85044 119.205 4.56265 119.765 4.56265H123.446C124.026 4.56265 124.317 4.84206 124.317 5.43159V32.9946C124.317 33.5721 124.027 33.8617 123.446 33.8636H119.757C119.202 33.8636 118.925 33.5739 118.925 32.9946Z" fill="#1B1464"/>
<path d="M148.261 16.1718L138.603 40.8123C138.508 41.0711 138.336 41.2941 138.108 41.4499C137.88 41.6057 137.61 41.6866 137.334 41.6812H134.126C133.859 41.6862 133.595 41.6258 133.356 41.5052C133.243 41.4409 133.151 41.3451 133.091 41.2295C133.031 41.1139 133.007 40.9835 133.02 40.8542C133.025 40.6803 133.052 40.5077 133.098 40.3401L135.591 33.6652L128.387 16.0628C128.317 15.9333 128.27 15.7923 128.25 15.6465C128.238 15.5613 128.231 15.4755 128.227 15.3895C128.227 14.8111 128.586 14.5205 129.297 14.5205H132.743C133.044 14.5053 133.342 14.5963 133.583 14.7776C133.791 14.9456 133.942 15.1726 134.017 15.4286L138.334 26.9595L142.608 15.3895C142.795 14.8102 143.23 14.5205 143.913 14.5205H147.32C147.475 14.5032 147.632 14.517 147.781 14.5611C147.931 14.6053 148.07 14.6789 148.191 14.7776C148.356 14.9698 148.441 15.2177 148.429 15.4705C148.407 15.7111 148.35 15.9474 148.261 16.1718Z" fill="#1B1464"/>
<path d="M151.625 31.1785C151.616 30.7564 151.695 30.3371 151.855 29.9464C152.016 29.5557 152.255 29.2019 152.558 28.9069C152.847 28.6075 153.196 28.3707 153.581 28.2111C153.967 28.0516 154.381 27.9727 154.798 27.9793C155.225 27.9669 155.649 28.043 156.044 28.2027C156.44 28.3623 156.798 28.6022 157.095 28.9069C157.68 29.5151 158.006 30.3249 158.006 31.1673C158.006 32.0097 157.68 32.8196 157.095 33.4277C156.801 33.7385 156.444 33.9837 156.049 34.1474C155.653 34.3112 155.227 34.3896 154.798 34.3776C154.379 34.384 153.963 34.3027 153.577 34.1391C153.191 33.9755 152.844 33.7332 152.558 33.4277C152.258 33.135 152.021 32.7848 151.86 32.3983C151.7 32.0117 151.62 31.5968 151.625 31.1785V31.1785Z" fill="#1B1464"/>
</svg>
